<svg version="1" xmlns="http://www.w3.org/2000/svg" width="682.667" height="682.667" viewBox="0 0 512.000000 512.000000"><path d="M80 1.1C48.5 6.4 20.8 28.2 7.5 58.3l-2.6 5.9 8.3-.6c4.6-.4 10.3-.9 12.8-1.1 2.5-.3 8.3-.7 13-1 4.7-.3 10.5-.8 13-1 2.5-.2 8.1-.7 12.5-1 4.4-.3 10-.8 12.5-1.1 2.5-.2 9.2-.6 15-.9 14.2-.6 15.6.1 23.8 13.1 3.4 5.4 6.8 11 7.6 12.4.7 1.4 5.4 9.4 10.5 17.8s10 16.8 11 18.5c1 1.8 13.2 22.1 27 45.2s25.8 43.1 26.6 44.5c26.2 43.9 49.3 82.4 51.3 85.5 1.5 2.2 2.7 4.1 2.8 4.3.1.2 2.2-.2 4.5-.8 2.4-.7 5.1-1.4 5.9-1.5.8-.2 10.1-2.4 20.5-4.9 27.2-6.6 54-13.1 68.5-16.5 16.7-4 35.2-8.4 50.8-12.2 7-1.7 13.4-3.2 14.2-3.4 3.8-.8 7.6-1.8 8.2-2.2.5-.2-1.2-3.2-3.5-6.6-2.4-3.4-15.7-22.2-29.5-41.8-13.9-19.6-25.2-36.5-25.2-37.6 0-2.1 2.3-4.6 5.4-5.7 1.5-.5 18.9-3.5 52.6-9.1 1.9-.3 4.6-.7 6-1 2.7-.5 6.4-1.1 12.5-2.1 2.2-.3 6.9-1.1 10.5-1.7 9.1-1.7 12.1-1.1 16.8 2.9 2.3 1.9 12.5 13.9 22.7 26.6l18.6 23.1-.4-62.4c-.3-60.1-.4-62.7-2.5-70.1C499.3 36.2 471 9.6 434 1.4 429 .2 86.7 0 80 1.1z"/><path d="M89.8 73.5c-.2.2-4.3.6-9.3.9-4.9.4-10.6.9-12.5 1.1-1.9.2-6.9.7-11 1-4.1.4-9.1.8-11.1 1-4.1.4-15.8 1.5-23.4 2.1-17.2 1.3-21 1.7-21.4 2-.2.2-.4 3-.5 6.1 0 5.4.8 7.4 10.8 27.8 11 22.3 21.8 44.5 33.1 68 3.4 7.1 11.1 22.9 17 35 5.9 12.1 13.3 27.4 16.5 34 3.2 6.6 8.9 18.5 12.8 26.5 3.8 8 10.6 22.1 15.1 31.5 4.4 9.3 8.5 17.7 9 18.5 1.2 2.1 8 1.7 16.6-1 2.6-.8 22.4-5.4 27.8-6.5 1-.3 2.7-.7 3.7-1 1-.3 2.7-.8 3.7-1 14.4-2.9 59.1-14.1 60.1-15 1.1-1 1.2-1.7.2-3.6-.7-1.3-19.4-33.7-41.6-72-22.1-38.3-41.2-71.1-42.2-73-1.1-1.9-5.9-10.2-10.7-18.4-4.9-8.3-9.4-16.1-10.1-17.5-.8-1.4-7.1-12.4-14.2-24.4-11.5-19.8-13-22-15.5-22.1-1.5-.1-2.8-.1-2.9 0z"/><path d="M.3 289.5c.1 78.1.6 143.1 1 144.5.5 1.4 1 3.6 1.3 4.9 1.1 5.3 4.7 14.9 8 21.1 14.1 26.8 41.4 46.6 69.9 50.8 6.1.9 345.3 1 351 .1 27.9-4.4 53.4-22.4 68.8-48.7 3.5-6 8.8-20 10.2-27.2 1.1-5.8 1.8-50 .8-50-.5 0-6.5 2-13.2 4.5-10.2 3.8-59.4 21.4-138.6 49.7-22.9 8.2-34.9 11.7-38.2 11.2-.7-.1-2.3-.2-3.6-.3-5.6-.3-14.9-12.6-29.4-38.9-1.4-2.6-6.3-11.2-10.8-19.2-4.5-8-10.5-18.6-13.2-23.5-2.8-5-5.9-10.6-7-12.5-1.1-1.9-5-9.1-8.8-16-3.7-6.9-7-12.7-7.1-12.9-.3-.3-8.1 1.1-12.4 2.3-11.3 3.2-78.7 20.7-99.5 25.9-18.5 4.6-26.5 3.6-33.8-4-2.3-2.5-8.7-15.4-21.9-44.3-1.1-2.5-4-8.7-6.4-13.8-2.4-5.2-4.4-9.5-4.4-9.7 0-.1-2.4-5.4-5.4-11.6-2.9-6.3-6.3-13.4-7.4-15.9-1.1-2.5-3.9-8.6-6.2-13.5-3.9-8.4-25.2-54.4-29.8-64.5-1.1-2.5-4.8-10.4-8.1-17.5l-6.1-13 .3 142zM453 168.2c-4.7.9-10.2 2-12.3 2.3-3.6.6-16.4 2.9-21.7 3.9-1.4.3-6.8 1.2-12 2.1-14 2.3-14.3 2.4-13.8 4.3.3 1 7.4 11.2 15.8 22.7 8.4 11.6 19.8 27.2 25.2 34.7 5.4 7.5 10.2 13.9 10.6 14.2.5.3 10.7-2 22.7-5.1 12.1-3 22.5-5.6 23-5.7.6-.2 5.6-1.3 11.3-2.6l10.2-2.4v-4.7c0-4.4-.6-5.4-9.2-16.4-5.1-6.4-13.9-17.6-19.6-24.9-5.7-7.2-10.9-13.8-11.5-14.6-.7-.8-2.5-3.1-4-5.1-1.5-2-3.5-3.9-4.5-4.1-.9-.2-5.5.4-10.2 1.4zM509 258.1c-1.4.5-7.4 2.2-13.5 3.8-30.2 7.9-35.5 9.5-35.1 10.6.2.6 10.5 14.6 22.8 31.1 12.3 16.4 23.8 31.9 25.6 34.3l3.2 4.5v-42.7c0-23.5-.1-42.7-.2-42.6-.2.1-1.4.5-2.8 1z"/><path d="M420.5 279.6c-8.8 2.4-16.9 4.5-18 4.8-1.1.2-8.1 2-15.5 3.9-21.4 5.7-36 9.5-58 15.1-11.3 3-29.5 7.7-40.5 10.6-11 2.9-20.7 5.3-21.5 5.5-2.1.4-1.6 1.7 4.1 11.3 2.7 4.6 4.9 8.5 4.9 8.7 0 .2 2.3 4 5 8.5 2.8 4.5 5 8.3 5 8.4 0 .6 29.7 51.2 33.4 57 1.9 3 4.4 6 5.5 6.6 1.7.8 6.7-.5 27.3-7.5 13.9-4.8 30.5-10.4 36.8-12.5 6.3-2.2 32.2-11 57.5-19.6 25.3-8.6 47.4-16 49-16.5 1.7-.5 3.9-1.5 5-2.3 2.2-1.6 4.9 2.5-35.5-52.9-18.5-25.4-25-33.6-26.5-33.5-1.1 0-9.2 2-18 4.4z"/></svg>